<svg xmlns="http://www.w3.org/2000/svg" viewBox="20 20 68 68">
  <defs>
    <linearGradient id="bg" x1="0" y1="0" x2="1" y2="0">
      <stop offset="0%" stop-color="#42B8BC"/>
      <stop offset="50%" stop-color="#FEDC77"/>
      <stop offset="100%" stop-color="#8C3592"/>
    </linearGradient>
  </defs>
  <rect x="20" y="20" width="68" height="68" rx="14" fill="url(#bg)"/>
  <!-- BLACK OUTLINE LAYER -->
  <circle cx="54" cy="54" r="16.38" fill="none" stroke="#000" stroke-width="10.46"/>
  <line x1="54" y1="54" x2="54.91" y2="43.99" stroke="#000" stroke-width="10.46" stroke-linecap="round"/>
  <line x1="54" y1="54" x2="65.01" y2="47.63" stroke="#000" stroke-width="9.1" stroke-linecap="round"/>
  <line x1="74.02" y1="54" x2="81.3" y2="54" stroke="#000" stroke-width="9.1" stroke-linecap="round"/>
  <line x1="68.16" y1="68.16" x2="73.29" y2="73.29" stroke="#000" stroke-width="9.1" stroke-linecap="round"/>
  <line x1="54" y1="74.02" x2="54" y2="81.3" stroke="#000" stroke-width="9.1" stroke-linecap="round"/>
  <line x1="39.84" y1="68.16" x2="34.71" y2="73.29" stroke="#000" stroke-width="9.1" stroke-linecap="round"/>
  <line x1="33.98" y1="54" x2="26.7" y2="54" stroke="#000" stroke-width="9.1" stroke-linecap="round"/>
  <line x1="39.84" y1="39.84" x2="34.71" y2="34.71" stroke="#000" stroke-width="9.1" stroke-linecap="round"/>
  <line x1="54" y1="33.98" x2="54" y2="26.7" stroke="#000" stroke-width="9.1" stroke-linecap="round"/>
  <line x1="68.16" y1="39.84" x2="73.29" y2="34.71" stroke="#000" stroke-width="9.1" stroke-linecap="round"/>
  <!-- WHITE FOREGROUND LAYER -->
  <circle cx="54" cy="54" r="16.38" fill="none" stroke="#fff" stroke-width="4.55"/>
  <line x1="54" y1="54" x2="54.91" y2="43.99" stroke="#fff" stroke-width="4.55" stroke-linecap="round"/>
  <line x1="54" y1="54" x2="65.01" y2="47.63" stroke="#fff" stroke-width="3.64" stroke-linecap="round"/>
  <line x1="74.02" y1="54" x2="81.3" y2="54" stroke="#fff" stroke-width="3.64" stroke-linecap="round"/>
  <line x1="68.16" y1="68.16" x2="73.29" y2="73.29" stroke="#fff" stroke-width="3.64" stroke-linecap="round"/>
  <line x1="54" y1="74.02" x2="54" y2="81.3" stroke="#fff" stroke-width="3.64" stroke-linecap="round"/>
  <line x1="39.84" y1="68.16" x2="34.71" y2="73.29" stroke="#fff" stroke-width="3.64" stroke-linecap="round"/>
  <line x1="33.98" y1="54" x2="26.7" y2="54" stroke="#fff" stroke-width="3.64" stroke-linecap="round"/>
  <line x1="39.84" y1="39.84" x2="34.71" y2="34.71" stroke="#fff" stroke-width="3.64" stroke-linecap="round"/>
  <line x1="54" y1="33.98" x2="54" y2="26.7" stroke="#fff" stroke-width="3.64" stroke-linecap="round"/>
  <line x1="68.16" y1="39.84" x2="73.29" y2="34.71" stroke="#fff" stroke-width="3.64" stroke-linecap="round"/>
</svg>
