<svg xmlns="http://www.w3.org/2000/svg" viewBox="20 20 68 68">
  <defs>
    <linearGradient id="bg" x1="0" y1="0" x2="1" y2="0">
      <stop offset="0%" stop-color="#42B8BC"/>
      <stop offset="50%" stop-color="#FEDC77"/>
      <stop offset="100%" stop-color="#8C3592"/>
    </linearGradient>
  </defs>
  <rect x="20" y="20" width="68" height="68" rx="14" fill="url(#bg)"/>
  
  <!-- BLACK OUTLINE LAYER -->
  <!-- Clock circle outline -->
  <circle cx="54" cy="54" r="18" fill="none" stroke="#000" stroke-width="7.5"/>
  <!-- Hour hand outline (12h10) -->
  <line x1="54" y1="54" x2="55" y2="43" stroke="#000" stroke-width="7.5" stroke-linecap="round"/>
  <!-- Minute hand outline (12h10) -->
  <line x1="54" y1="54" x2="66.1" y2="47" stroke="#000" stroke-width="6" stroke-linecap="round"/>
  <!-- Sun rays outlines -->
  <line x1="76" y1="54" x2="84" y2="54" stroke="#000" stroke-width="6" stroke-linecap="round"/>
  <line x1="69.56" y1="69.56" x2="75.2" y2="75.2" stroke="#000" stroke-width="6" stroke-linecap="round"/>
  <line x1="54" y1="76" x2="54" y2="84" stroke="#000" stroke-width="6" stroke-linecap="round"/>
  <line x1="38.44" y1="69.56" x2="32.8" y2="75.2" stroke="#000" stroke-width="6" stroke-linecap="round"/>
  <line x1="32" y1="54" x2="24" y2="54" stroke="#000" stroke-width="6" stroke-linecap="round"/>
  <line x1="38.44" y1="38.44" x2="32.8" y2="32.8" stroke="#000" stroke-width="6" stroke-linecap="round"/>
  <line x1="54" y1="32" x2="54" y2="24" stroke="#000" stroke-width="6" stroke-linecap="round"/>
  <line x1="69.56" y1="38.44" x2="75.2" y2="32.8" stroke="#000" stroke-width="6" stroke-linecap="round"/>
  
  <!-- WHITE FOREGROUND LAYER -->
  <!-- Clock circle -->
  <circle cx="54" cy="54" r="18" fill="none" stroke="#fff" stroke-width="5"/>
  <!-- Hour hand (12h10) -->
  <line x1="54" y1="54" x2="55" y2="43" stroke="#fff" stroke-width="5" stroke-linecap="round"/>
  <!-- Minute hand (12h10) -->
  <line x1="54" y1="54" x2="66.1" y2="47" stroke="#fff" stroke-width="4" stroke-linecap="round"/>
  <!-- Sun rays -->
  <line x1="76" y1="54" x2="84" y2="54" stroke="#fff" stroke-width="4" stroke-linecap="round"/>
  <line x1="69.56" y1="69.56" x2="75.2" y2="75.2" stroke="#fff" stroke-width="4" stroke-linecap="round"/>
  <line x1="54" y1="76" x2="54" y2="84" stroke="#fff" stroke-width="4" stroke-linecap="round"/>
  <line x1="38.44" y1="69.56" x2="32.8" y2="75.2" stroke="#fff" stroke-width="4" stroke-linecap="round"/>
  <line x1="32" y1="54" x2="24" y2="54" stroke="#fff" stroke-width="4" stroke-linecap="round"/>
  <line x1="38.44" y1="38.44" x2="32.8" y2="32.8" stroke="#fff" stroke-width="4" stroke-linecap="round"/>
  <line x1="54" y1="32" x2="54" y2="24" stroke="#fff" stroke-width="4" stroke-linecap="round"/>
  <line x1="69.56" y1="38.44" x2="75.2" y2="32.8" stroke="#fff" stroke-width="4" stroke-linecap="round"/>
</svg>
